<svg width="299" height="35" viewBox="0 0 299 35" fill="none" xmlns="http://www.w3.org/2000/svg">
<path d="M16.2705 2.05176L17.8086 6.09473L17.5449 6.13867C17.5449 6.12402 17.1348 5.69189 16.3145 4.84229C15.5088 3.99268 14.5786 3.34082 13.5239 2.88672C12.4839 2.41797 11.3047 2.18359 9.98633 2.18359C7.77441 2.18359 6.0166 2.8208 4.71289 4.09521C3.42383 5.35498 2.7793 6.87842 2.7793 8.66553C2.7793 9.85205 3.07959 10.8921 3.68018 11.7856C4.29541 12.6646 5.56982 13.4849 7.50342 14.2466C10.8286 15.3599 13.0991 16.2021 14.3149 16.7734C15.5454 17.3301 16.7246 18.2822 17.8525 19.6299C18.9951 20.9775 19.5664 22.7061 19.5664 24.8154C19.5664 25.6943 19.4639 26.5366 19.2588 27.3423C19.0537 28.1333 18.7241 28.9023 18.27 29.6494C17.8159 30.3818 17.2666 31.0557 16.6221 31.6709C15.9922 32.2715 15.3477 32.7329 14.6885 33.0552C14.0293 33.3628 12.9893 33.5972 11.5684 33.7583C10.1475 33.9194 9.20996 34 8.75586 34H0.120605V24.5957H0.450195C0.479492 27.7158 1.21191 29.8911 2.64746 31.1216C4.08301 32.3521 6.31689 32.9673 9.34912 32.9673C12.103 32.9673 14.1904 32.3154 15.6113 31.0117C17.0469 29.708 17.7646 28.1406 17.7646 26.3096C17.7646 25.1963 17.5156 24.2515 17.0176 23.4751C16.5195 22.6841 15.8237 21.9956 14.9302 21.4097C14.0366 20.8091 12.3447 20.084 9.85449 19.2344C7.37891 18.3701 5.63574 17.6157 4.625 16.9712C3.62891 16.312 2.79395 15.3306 2.12012 14.0269C1.44629 12.7085 1.10938 11.3682 1.10938 10.0059C1.10938 7.50098 1.96631 5.39893 3.68018 3.69971C5.40869 2.00049 7.67188 1.15088 10.4697 1.15088C11.5537 1.15088 12.7256 1.27539 13.9854 1.52441C15.2451 1.77344 15.9482 1.93457 16.0947 2.00781C16.1533 2.03711 16.2119 2.05176 16.2705 2.05176ZM47.8013 0.513672L46.2632 4.4248H45.9556C46.0142 4.19043 46.0435 3.87549 46.0435 3.47998C46.0435 3.14307 45.9189 2.93066 45.6699 2.84277C45.4355 2.74023 45.0547 2.68896 44.5273 2.68896H36.0679V30.3965C36.0679 31.5391 36.1558 32.3228 36.3315 32.7476C36.522 33.1577 36.771 33.4214 37.0786 33.5386C37.4009 33.6411 37.9136 33.6924 38.6167 33.6924V34H29.8496V33.6924C30.9482 33.6191 31.6367 33.4067 31.915 33.0552C32.1934 32.7036 32.3325 31.9712 32.3325 30.8579V2.68896H24.2246C23.4043 2.68896 22.8696 2.74023 22.6206 2.84277C22.3716 2.93066 22.2471 3.16504 22.2471 3.5459C22.2471 3.73633 22.3057 4.0293 22.4229 4.4248H22.1152L20.5771 0.513672H20.8848C21.1484 1.04102 21.4048 1.36328 21.6538 1.48047C21.9175 1.58301 22.4741 1.63428 23.3237 1.63428H44.835C45.6846 1.63428 46.2925 1.58301 46.6587 1.48047C47.0396 1.36328 47.3179 1.04102 47.4937 0.513672H47.8013ZM79.6836 34H73.5752V29.0122C70.4551 32.4839 66.7344 34.2197 62.4131 34.2197C59.2051 34.2197 56.6562 33.3188 54.7666 31.5171C52.8916 29.7153 51.9541 27.2251 51.9541 24.0464V4.6665C51.9541 3.49463 51.8149 2.75488 51.5366 2.44727C51.2583 2.125 50.6064 1.96387 49.5811 1.96387V1.63428H58.1724V1.96387C57.2642 1.96387 56.6196 2.11035 56.2388 2.40332C55.8726 2.68164 55.6895 3.35547 55.6895 4.4248V22.2007C55.6895 25.9214 56.561 28.5801 58.3042 30.1768C60.0474 31.7588 62.0322 32.5498 64.2588 32.5498C67.7598 32.5498 70.8652 30.9751 73.5752 27.8257V5.91895C73.5752 4 73.4067 2.86475 73.0698 2.51318C72.7329 2.14697 72.2056 1.96387 71.4878 1.96387H71.1802V1.63428H79.6836V1.96387C78.6289 2.02246 77.9624 2.19824 77.6841 2.49121C77.4204 2.78418 77.2886 3.34082 77.2886 4.16113V30.5283C77.2886 31.5684 77.3398 32.2495 77.4424 32.5718C77.5449 32.894 77.75 33.165 78.0576 33.3848C78.3799 33.5898 78.9219 33.6924 79.6836 33.6924V34ZM83.2432 1.96387V1.63428H98.0967C101.876 1.63428 104.857 1.93457 107.04 2.53516C109.237 3.12109 111.148 4.05127 112.774 5.32568C114.4 6.6001 115.689 8.2334 116.642 10.2256C117.594 12.2031 118.07 14.415 118.07 16.8613C118.07 19.2197 117.572 21.5415 116.576 23.8267C115.594 26.0972 114.254 28.0601 112.555 29.7153C110.855 31.356 109.061 32.4839 107.171 33.0991C105.296 33.6997 102.389 34 98.4482 34H83.2432V33.6924H83.6387C84.4297 33.6924 84.9497 33.3774 85.1987 32.7476C85.4478 32.103 85.5723 30.9458 85.5723 29.2759V5.69922C85.5723 3.94141 85.4185 2.87939 85.1108 2.51318C84.8179 2.14697 84.1953 1.96387 83.2432 1.96387ZM94.2734 2.31543H89.3076V27.4302C89.3076 29.0122 89.5713 30.1914 90.0986 30.9678C90.6406 31.7295 91.5562 32.2861 92.8452 32.6377C94.1343 32.9746 95.8701 33.1431 98.0527 33.1431C104.117 33.1431 108.373 31.5903 110.819 28.4849C113.28 25.3647 114.51 21.9663 114.51 18.2896C114.51 13.9683 112.826 10.2256 109.457 7.06152C106.102 3.89746 101.041 2.31543 94.2734 2.31543ZM129.715 1.63428V1.96387C129.291 1.91992 128.814 1.98584 128.287 2.16162C127.774 2.3374 127.467 2.59375 127.364 2.93066C127.276 3.26758 127.232 4.06592 127.232 5.32568V30.1768C127.232 31.5244 127.284 32.3521 127.386 32.6597C127.503 32.9526 127.716 33.2017 128.023 33.4067C128.346 33.5972 128.91 33.6924 129.715 33.6924V34H121.08V33.6924C122.164 33.6924 122.838 33.4873 123.102 33.0771C123.365 32.6523 123.497 31.7002 123.497 30.2207V5.61133C123.497 4.07324 123.351 3.06982 123.058 2.60107C122.765 2.11768 122.105 1.90527 121.08 1.96387V1.63428H129.715ZM150.853 1.15088C155.394 1.15088 159.107 2.53516 161.993 5.30371C164.879 8.05762 166.322 11.5 166.322 15.6309C166.322 20.9482 164.652 25.4233 161.312 29.0562C157.972 32.689 153.541 34.5054 148.019 34.5054C143.536 34.5054 139.867 33.0405 137.01 30.1108C134.154 27.1812 132.726 23.6655 132.726 19.564C132.726 16.7954 133.414 13.9536 134.791 11.0386C136.168 8.12354 138.241 5.75049 141.009 3.91943C143.778 2.07373 147.059 1.15088 150.853 1.15088ZM150.721 32.7915C152.948 32.7915 155.145 32.1982 157.313 31.0117C159.481 29.8105 161.188 28.1626 162.433 26.0679C163.678 23.9731 164.3 21.8198 164.3 19.6079C164.3 16.4731 163.458 13.624 161.773 11.0605C160.104 8.49707 157.928 6.49023 155.248 5.04004C152.582 3.58984 150.113 2.86475 147.843 2.86475C144.635 2.86475 141.72 4.07324 139.098 6.49023C136.49 8.90723 135.187 11.9102 135.187 15.499C135.187 20.084 136.783 24.1123 139.977 27.584C143.17 31.0557 146.751 32.7915 150.721 32.7915ZM212.289 1.63428H217.386V1.96387C215.672 2.05176 214.815 2.95264 214.815 4.6665C214.815 5.03271 214.859 5.53809 214.947 6.18262L218.331 30.7041C218.536 31.9346 218.763 32.7256 219.012 33.0771C219.276 33.4141 219.811 33.6191 220.616 33.6924V34H213.343V33.6924C214.295 33.7217 214.771 33.2529 214.771 32.2861C214.771 32.0664 214.728 31.6343 214.64 30.9897L211.344 7.21533L199.742 34H199.522L187.855 7.25928L184.581 31.1655C184.522 31.5317 184.493 31.9492 184.493 32.418C184.493 33.2676 184.984 33.6924 185.965 33.6924V34H181.021V33.6924C181.769 33.6924 182.245 33.5972 182.45 33.4067C182.669 33.2163 182.838 32.9233 182.955 32.5278C183.072 32.1177 183.16 31.6636 183.219 31.1655L186.91 5.01807C186.31 3.56787 185.709 2.69629 185.108 2.40332C184.508 2.11035 183.929 1.96387 183.373 1.96387V1.63428H189.481L200.863 28.1113L212.289 1.63428ZM241.402 1.63428H246.258V1.96387C245.643 2.00781 245.138 2.1543 244.742 2.40332C244.347 2.65234 243.893 3.16504 243.38 3.94141L235.47 15.9165V30.77C235.47 31.9712 235.624 32.7622 235.931 33.1431C236.239 33.5093 236.905 33.6924 237.931 33.6924V34H229.295V33.6924C230.951 33.7949 231.778 33.1431 231.778 31.7368L231.734 30.814V17.125L223.802 3.98535C222.967 2.59375 222.037 1.91992 221.012 1.96387V1.63428H228.658V1.96387C227.94 1.96387 227.582 2.23486 227.582 2.77686C227.582 3.05518 227.765 3.4873 228.131 4.07324L234.657 14.8398L241.798 3.98535C241.93 3.86816 242.076 3.65576 242.237 3.34814C242.398 3.02588 242.479 2.80615 242.479 2.68896C242.479 2.20557 242.164 1.96387 241.534 1.96387H241.402V1.63428ZM263.814 2.05176L265.353 6.09473L265.089 6.13867C265.089 6.12402 264.679 5.69189 263.858 4.84229C263.053 3.99268 262.123 3.34082 261.068 2.88672C260.028 2.41797 258.849 2.18359 257.53 2.18359C255.318 2.18359 253.561 2.8208 252.257 4.09521C250.968 5.35498 250.323 6.87842 250.323 8.66553C250.323 9.85205 250.624 10.8921 251.224 11.7856C251.839 12.6646 253.114 13.4849 255.047 14.2466C258.373 15.3599 260.643 16.2021 261.859 16.7734C263.089 17.3301 264.269 18.2822 265.396 19.6299C266.539 20.9775 267.11 22.7061 267.11 24.8154C267.11 25.6943 267.008 26.5366 266.803 27.3423C266.598 28.1333 266.268 28.9023 265.814 29.6494C265.36 30.3818 264.811 31.0557 264.166 31.6709C263.536 32.2715 262.892 32.7329 262.232 33.0552C261.573 33.3628 260.533 33.5972 259.112 33.7583C257.691 33.9194 256.754 34 256.3 34H247.665V24.5957H247.994C248.023 27.7158 248.756 29.8911 250.191 31.1216C251.627 32.3521 253.861 32.9673 256.893 32.9673C259.647 32.9673 261.734 32.3154 263.155 31.0117C264.591 29.708 265.309 28.1406 265.309 26.3096C265.309 25.1963 265.06 24.2515 264.562 23.4751C264.063 22.6841 263.368 21.9956 262.474 21.4097C261.581 20.8091 259.889 20.084 257.398 19.2344C254.923 18.3701 253.18 17.6157 252.169 16.9712C251.173 16.312 250.338 15.3306 249.664 14.0269C248.99 12.7085 248.653 11.3682 248.653 10.0059C248.653 7.50098 249.51 5.39893 251.224 3.69971C252.953 2.00049 255.216 1.15088 258.014 1.15088C259.098 1.15088 260.27 1.27539 261.529 1.52441C262.789 1.77344 263.492 1.93457 263.639 2.00781C263.697 2.03711 263.756 2.05176 263.814 2.05176ZM286.93 19.1025H277.481L272.582 31.3413C272.245 32.2202 272.076 32.7622 272.076 32.9673C272.076 33.4507 272.435 33.6924 273.153 33.6924V34H268.341V33.6924C268.985 33.6924 269.527 33.5386 269.967 33.231C270.406 32.9087 270.89 32.0884 271.417 30.77L283.15 1.15088H283.7L295.257 29.7593C295.257 29.9058 295.55 30.6016 296.136 31.8467C296.737 33.0771 297.645 33.6924 298.861 33.6924V34H291.302V33.6924C291.991 33.6924 292.335 33.4214 292.335 32.8794C292.335 32.5132 292.167 31.9272 291.83 31.1216C291.771 31.063 291.72 30.9678 291.676 30.8359C291.646 30.6895 291.625 30.6162 291.61 30.6162L286.93 19.1025ZM277.789 18.2017H286.534L282.162 7.17139L277.789 18.2017Z" fill="white"/>
</svg>
