<svg width="37" height="36" viewBox="0 0 37 36" fill="none" xmlns="http://www.w3.org/2000/svg">
<path fill-rule="evenodd" clip-rule="evenodd" d="M19.157 4.16682C18.9402 4.09768 18.7053 4.11377 18.5 4.21182C18.3983 4.25892 18.308 4.32759 18.2355 4.41306C18.1629 4.49854 18.1099 4.59878 18.08 4.70682L17.366 7.45782C17.1166 8.41927 16.754 9.34774 16.286 10.2238C15.5585 11.5843 14.459 12.6298 13.439 13.5088L11.282 15.3688C11.117 15.5112 10.9881 15.6906 10.906 15.8924C10.8238 16.0943 10.7908 16.3127 10.8095 16.5298L12.0275 30.6193C12.0571 30.9615 12.2138 31.2802 12.4668 31.5126C12.7197 31.745 13.0505 31.8742 13.394 31.8748H20.3675C25.0715 31.8748 29.036 28.6018 29.7965 24.2053L30.854 18.0853C30.8883 17.8881 30.8791 17.6858 30.827 17.4925C30.775 17.2992 30.6813 17.1196 30.5526 16.9663C30.4238 16.813 30.2631 16.6896 30.0818 16.6049C29.9004 16.5202 29.7027 16.4761 29.5025 16.4758H21.731C20.2655 16.4758 19.151 15.1618 19.388 13.7158L20.3825 7.64982C20.5187 6.81896 20.4799 5.96881 20.2685 5.15382C20.2088 4.93807 20.0956 4.74091 19.9393 4.58068C19.783 4.42044 19.5887 4.30233 19.3745 4.23732L19.157 4.16682ZM17.522 2.18532C18.2474 1.83635 19.079 1.7789 19.8455 2.02482L20.063 2.09532C21.2285 2.47032 22.1375 3.40032 22.4465 4.58832C22.736 5.70732 22.79 6.87432 22.6025 8.01432L21.608 14.0803C21.6049 14.0982 21.6058 14.1166 21.6106 14.1341C21.6154 14.1516 21.6239 14.1678 21.6356 14.1817C21.6474 14.1956 21.662 14.2067 21.6784 14.2143C21.6949 14.2219 21.7128 14.2259 21.731 14.2258H29.501C31.751 14.2258 33.455 16.2538 33.071 18.4693L32.0135 24.5893C31.0565 30.1213 26.1065 34.1248 20.3675 34.1248H13.394C12.4874 34.1241 11.614 33.7835 10.9462 33.1704C10.2783 32.5572 9.86455 31.7161 9.78649 30.8128L8.56699 16.7233C8.51742 16.1511 8.60443 15.5753 8.82088 15.0433C9.03733 14.5114 9.37702 14.0384 9.812 13.6633L11.972 11.8033C12.9545 10.9573 13.781 10.1368 14.3 9.16332C14.6853 8.44438 14.9835 7.68198 15.188 6.89232L15.902 4.14282C16.0137 3.71847 16.2164 3.32353 16.4962 2.98547C16.776 2.64742 17.126 2.37438 17.522 2.18532ZM4.95199 14.2273C5.24188 14.2146 5.52546 14.3145 5.74349 14.5059C5.96151 14.6974 6.09712 14.9657 6.12199 15.2548L7.57699 32.1088C7.60164 32.3598 7.57487 32.6132 7.49831 32.8535C7.42175 33.0938 7.29701 33.3159 7.13171 33.5064C6.96641 33.6968 6.76402 33.8516 6.5369 33.9612C6.30978 34.0708 6.0627 34.133 5.81075 34.1439C5.5588 34.1549 5.30726 34.1143 5.07151 34.0247C4.83575 33.9352 4.62073 33.7985 4.43956 33.6231C4.2584 33.4476 4.1149 33.2371 4.01783 33.0044C3.92076 32.7716 3.87216 32.5215 3.875 32.2693V15.3508C3.87473 15.0606 3.98665 14.7815 4.18735 14.5718C4.38806 14.3622 4.66202 14.2397 4.95199 14.2273Z" fill="#003B95"/>
</svg>
