<svg width="35" height="35" viewBox="0 0 35 35" fill="none" xmlns="http://www.w3.org/2000/svg">
<path d="M31.3947 6.5625L22.4219 15.4287V6.5625H20.0618L11.4844 15.2624V1.09375H1.09375V33.9062H33.9062V6.5625H31.3947ZM31.7188 31.7188H3.28125V3.28125H9.29688V18.0469H11.811L20.2344 9.50318V18.0469H22.8843L31.7188 9.31738V31.7188Z" fill="#003B95"/>
<path d="M9.29688 22.4219V22.9688H11.4844V20.7812H9.29688V22.4219ZM9.29688 25.7031H11.4844V27.8906H9.29688V25.7031ZM14.7656 22.4219V22.9688H16.9531V20.7812H14.7656V22.4219ZM14.7656 25.7031H16.9531V27.8906H14.7656V25.7031ZM20.2344 22.4219V22.9688H22.4219V20.7812H20.2344V22.4219ZM20.2344 25.7031H22.4219V27.8906H20.2344V25.7031ZM25.7031 20.7812H27.8906V22.9688H25.7031V20.7812ZM25.7031 25.7031H27.8906V27.8906H25.7031V25.7031Z" fill="#003B95"/>
</svg>
