<svg width="49" height="48" viewBox="0 0 49 48" fill="none" xmlns="http://www.w3.org/2000/svg">
<path d="M24.5 16L36.5 10L24.5 4V24" stroke="#003B95" stroke-width="2" stroke-linecap="round" stroke-linejoin="round"/>
<path d="M16.5 23.98L5.49998 30.26C5.19218 30.4344 4.93617 30.6874 4.75805 30.9931C4.57993 31.2987 4.48608 31.6462 4.48608 32C4.48608 32.3538 4.57993 32.7012 4.75805 33.0069C4.93617 33.3126 5.19218 33.5655 5.49998 33.74L22.5 43.46C23.1081 43.8111 23.7978 43.9959 24.5 43.9959C25.2021 43.9959 25.8919 43.8111 26.5 43.46L43.5 33.74C43.8078 33.5655 44.0638 33.3126 44.2419 33.0069C44.42 32.7012 44.5139 32.3538 44.5139 32C44.5139 31.6462 44.42 31.2987 44.2419 30.9931C44.0638 30.6874 43.8078 30.4344 43.5 30.26L32.5 24M13.48 25.7L35.52 38.3M35.52 25.7L13.5 38.3" stroke="#003B95" stroke-width="2" stroke-linecap="round" stroke-linejoin="round"/>
</svg>
