<svg width="24" height="24" viewBox="0 0 24 24" fill="none" xmlns="http://www.w3.org/2000/svg">
<path d="M8.565 9.375C7.93248 8.83521 7.48242 8.11298 7.27653 7.30733C7.07064 6.50169 7.11901 5.65207 7.415 4.875C7.70559 4.09165 8.23022 3.41671 8.91766 2.94184C9.6051 2.46696 10.422 2.21515 11.2575 2.22061C12.093 2.22608 12.9066 2.48854 13.5877 2.97236C14.2689 3.45618 14.7847 4.13792 15.065 4.925C15.3316 5.71396 15.355 6.56484 15.1321 7.36725C14.9092 8.16966 14.4503 8.88658 13.815 9.425" stroke="white" stroke-width="1.5" stroke-linecap="round" stroke-linejoin="round"/>
<path d="M6.765 16.125L10.015 16.825V6.5C9.99991 6.33659 10.0191 6.17182 10.0713 6.01623C10.1234 5.86064 10.2075 5.71765 10.3181 5.59639C10.4287 5.47513 10.5633 5.37827 10.7135 5.31199C10.8636 5.24572 11.0259 5.21149 11.19 5.21149C11.3541 5.21149 11.5164 5.24572 11.6665 5.31199C11.8167 5.37827 11.9513 5.47513 12.0619 5.59639C12.1725 5.71765 12.2566 5.86064 12.3087 6.01623C12.3609 6.17182 12.3801 6.33659 12.365 6.5V12.3H13.565L18.315 14.7C18.4744 14.8325 18.5988 15.0021 18.6772 15.1939C18.7557 15.3857 18.7858 15.5938 18.765 15.8L18 20.925C17.9224 21.1331 17.7954 21.3192 17.6299 21.4672C17.4644 21.6153 17.2654 21.7209 17.05 21.775H10.465C10.2843 21.7779 10.106 21.7333 9.94804 21.6455C9.79007 21.5578 9.65796 21.43 9.565 21.275L5.215 16.925L5.765 16.375C5.965 16.025 6.315 16.075 6.765 16.125Z" stroke="white" stroke-width="1.5"/>
</svg>
