<svg width="50" height="50" viewBox="0 0 50 50" fill="none" xmlns="http://www.w3.org/2000/svg">
<path d="M17.467 5.165L15.6745 5.705C14.0785 6.18632 12.6531 7.11357 11.5662 8.3776C10.4794 9.64163 9.77621 11.1898 9.53951 12.84C8.79701 18.01 10.457 24.055 14.4595 30.9875C18.452 37.9025 22.847 42.3575 27.6845 44.3075C29.2388 44.9339 30.9403 45.1009 32.5868 44.7884C34.2332 44.476 35.7553 43.6973 36.972 42.545L38.327 41.26C39.2069 40.4273 39.7545 39.3034 39.8681 38.0973C39.9816 36.8912 39.6535 35.6848 38.9445 34.7025L35.5545 30.0025C35.0962 29.368 34.4508 28.8928 33.7088 28.6435C32.9669 28.3943 32.1655 28.3834 31.417 28.6125L26.2895 30.18L26.157 30.205C25.592 30.2875 24.287 29.065 22.662 26.25C20.962 23.305 20.612 21.5825 21.0795 21.1375L23.687 18.705C24.6396 17.8155 25.2903 16.6505 25.548 15.373C25.8058 14.0954 25.6577 12.7692 25.1245 11.58L23.4695 7.9025C22.9719 6.79586 22.0888 5.90795 20.9848 5.40428C19.8809 4.90062 18.629 4.81557 17.467 5.165ZM21.1945 8.9275L22.8445 12.605C23.1647 13.3183 23.254 14.1138 23.0998 14.8804C22.9456 15.6469 22.5556 16.346 21.9845 16.88L19.3695 19.315C17.6945 20.9 18.2495 23.605 20.4995 27.5C22.6145 31.165 24.5445 32.975 26.6195 32.66L26.9295 32.595L32.1495 31.0025C32.399 30.9259 32.6663 30.9292 32.9138 31.0122C33.1613 31.0951 33.3766 31.2535 33.5295 31.465L36.9195 36.165C37.2745 36.6561 37.439 37.2595 37.3824 37.8628C37.3259 38.4662 37.0521 39.0284 36.612 39.445L35.2545 40.73C34.3854 41.5526 33.2984 42.1083 32.1226 42.3312C30.9469 42.5541 29.7319 42.4348 28.622 41.9875C24.377 40.2775 20.3645 36.21 16.627 29.7375C12.8795 23.25 11.362 17.7325 12.0145 13.195C12.1834 12.0161 12.6856 10.91 13.4621 10.0069C14.2385 9.10378 15.2568 8.44132 16.397 8.0975L18.1895 7.5575C18.7707 7.38287 19.3955 7.42558 19.9475 7.67765C20.4994 7.92972 20.9409 8.37395 21.1895 8.9275" fill="#886947"/>
</svg>
