<svg width="20" height="20" viewBox="0 0 20 20" fill="none" xmlns="http://www.w3.org/2000/svg">
<path d="M17.7084 10C17.7084 7.95562 16.8962 5.99498 15.4506 4.54939C14.005 3.10379 12.0444 2.29167 10 2.29167M17.7084 10H2.29169M17.7084 10C17.7084 12.0444 16.8962 14.005 15.4506 15.4506C14.005 16.8962 12.0444 17.7083 10 17.7083M10 2.29167C7.95564 2.29167 5.995 3.10379 4.54941 4.54939C3.10381 5.99498 2.29169 7.95562 2.29169 10M10 2.29167C9.58335 2.29167 6.66669 5.7425 6.66669 10C6.66669 14.2575 9.58335 17.7083 10 17.7083M10 2.29167C10.4167 2.29167 13.3334 5.7425 13.3334 10C13.3334 14.2575 10.4167 17.7083 10 17.7083M2.29169 10C2.29169 12.0444 3.10381 14.005 4.54941 15.4506C5.995 16.8962 7.95564 17.7083 10 17.7083" stroke="white" stroke-width="1.5" stroke-linecap="round" stroke-linejoin="round"/>
</svg>
