<svg width="50" height="50" viewBox="0 0 50 50" fill="none" xmlns="http://www.w3.org/2000/svg">
<path d="M25 45.3125C32.8125 34.375 39.0625 25 39.0625 18.75C39.0625 15.0204 37.5809 11.4435 34.9437 8.80631C32.3065 6.16908 28.7296 4.6875 25 4.6875C21.2704 4.6875 17.6935 6.16908 15.0563 8.80631C12.4191 11.4435 10.9375 15.0204 10.9375 18.75C10.9375 25 17.1875 34.375 25 45.3125Z" stroke="#886947" stroke-width="3.125"/>
<path d="M31.25 18.75C31.25 20.4076 30.5915 21.9973 29.4194 23.1694C28.2473 24.3415 26.6576 25 25 25C23.3424 25 21.7527 24.3415 20.5806 23.1694C19.4085 21.9973 18.75 20.4076 18.75 18.75C18.75 17.0924 19.4085 15.5027 20.5806 14.3306C21.7527 13.1585 23.3424 12.5 25 12.5C26.6576 12.5 28.2473 13.1585 29.4194 14.3306C30.5915 15.5027 31.25 17.0924 31.25 18.75Z" stroke="#886947" stroke-width="3.125"/>
</svg>
