<svg width="40" height="35" viewBox="0 0 40 35" fill="none" xmlns="http://www.w3.org/2000/svg">
<path d="M36.25 32.5H3.75C1.675 32.5 0 30.825 0 28.75V6.25C0 4.175 1.675 2.5 3.75 2.5H36.25C38.325 2.5 40 4.175 40 6.25V28.75C40 30.825 38.325 32.5 36.25 32.5ZM3.75 5C3.05 5 2.5 5.55 2.5 6.25V28.75C2.5 29.45 3.05 30 3.75 30H36.25C36.95 30 37.5 29.45 37.5 28.75V6.25C37.5 5.55 36.95 5 36.25 5H3.75Z" fill="#886947"/>
<path d="M19.9996 22.4C18.2496 22.4 16.6496 21.7 15.4496 20.425L2.32456 6.47499C1.84956 5.97499 1.87456 5.17499 2.37456 4.69999C2.87456 4.22499 3.67456 4.24999 4.14956 4.74999L17.2746 18.7C18.6996 20.225 21.2996 20.225 22.7246 18.7L35.8496 4.77499C36.3246 4.27499 37.1246 4.24999 37.6246 4.72499C38.1246 5.19999 38.1496 5.99999 37.6746 6.49999L24.5496 20.45C23.3496 21.725 21.7496 22.425 19.9996 22.425V22.4Z" fill="#886947"/>
</svg>
